<svg width="65" height="76" viewBox="0 0 65 76" fill="none" xmlns="http://www.w3.org/2000/svg">
<path fill-rule="evenodd" clip-rule="evenodd" d="M44.0888 10.1047H62.9258C64.0692 10.1047 65 11.083 65 12.2855V18.24H60.8335H4.1665H0V12.2855C0 11.083 0.93015 10.1047 2.07415 10.1047H20.9111V5.81658C20.9111 2.60954 23.3928 0 26.4433 0H38.5567C41.6071 0 44.0882 2.60954 44.0888 5.81658V10.1047ZM25.0607 9.37759H39.9392H39.9405V5.81658C39.9405 5.01465 39.3198 4.36226 38.5574 4.36226H26.4439C25.6815 4.36226 25.0607 5.01465 25.0607 5.81658V9.37759ZM5.90861 74.2281C5.90861 75.2049 6.827 76 7.9551 76H57.0439C58.1727 76 59.0904 75.2055 59.0904 74.2281V21.7143H5.90861V74.2281Z" fill="#263238"/>
</svg>
